<?xml version="1.0" encoding="utf-8"?>
<!-- Generator: Adobe Illustrator 23.0.0, SVG Export Plug-In . SVG Version: 6.00 Build 0)  -->
<svg version="1.1" id="图层_1" xmlns="http://www.w3.org/2000/svg" xmlns:xlink="http://www.w3.org/1999/xlink" x="0px" y="0px"
	 viewBox="0 0 200 200" style="enable-background:new 0 0 200 200;" xml:space="preserve">
<style type="text/css">
	.st0{fill:#FFFFFF;}
</style>
<path class="st0" d="M129.2,191.8L129.2,191.8c-3.5,0-7-1.5-9.2-3.9c-3-3.3-12.6-11.9-20.5-11.9c-7.8,0-17.5,8.7-20.3,11.7
	c-2.2,2.4-5.6,3.8-9.1,3.8c-1.7,0-3.2-0.3-4.7-1l-0.3-0.1l-23.9-13.3L41,177c-4.3-3-6-9-3.8-13.8c0,0,2.2-5.1,2.2-9.7
	c0-13.9-11.3-25.3-25.3-25.3h-0.8l-0.2,0c-4,0-7.2-3.5-8.3-9c-0.1-0.4-2-10.9-2-19.1c0-8.2,2-18.6,2-19.1c1.1-5.6,4.4-9.1,8.4-9h0.8
	C28,72,39.3,60.6,39.3,46.7c0-4.6-2.2-9.6-2.2-9.7C35,32.2,36.7,26.2,41,23.2l0.2-0.2L66.4,9.2l0.3-0.1c1.4-0.6,3-0.9,4.6-0.9
	c3.5,0,6.9,1.4,9.2,3.8c3,3.1,12.4,11.2,20,11.2c7.5,0,16.9-8,19.9-11c2.2-2.3,5.6-3.7,9.1-3.7c1.7,0,3.3,0.3,4.7,0.9l0.3,0.1
	L158.8,23l0.2,0.2c4.4,3,6,9,3.9,13.8c0,0-2.2,5.1-2.2,9.7c0,13.9,11.3,25.3,25.3,25.3h0.8c4.1-0.1,7.4,3.5,8.4,9
	c0.1,0.4,2,10.9,2,19.1c0,8.2-2,18.6-2,19.1c-1.1,5.6-4.4,9.1-8.4,9h-0.8c-13.9,0-25.3,11.3-25.3,25.3c0,4.6,2.2,9.6,2.2,9.7
	c2.1,4.8,0.5,10.8-3.9,13.8l-0.2,0.2L134,190.8l-0.3,0.1C132.3,191.5,130.8,191.8,129.2,191.8L129.2,191.8z M128.4,180.2
	c0.1,0.1,0.4,0.2,0.8,0.2l0,0l23.1-12.8c-0.6-1.3-3.1-7.6-3.1-14.1c0-19.6,15.5-35.7,34.8-36.7c0.3-1.5,1.8-10.2,1.8-16.7
	c0-6.5-1.5-15.2-1.8-16.7c-19.4-1-34.8-17.1-34.8-36.7c0-6.6,2.6-12.9,3.1-14.1l-22.7-12.6c0,0-0.1,0-0.1,0c-0.4,0-0.7,0.1-0.9,0.2
	c-0.4,0.4-3.7,3.7-8.4,7.1c-7,4.9-13.6,7.4-19.7,7.4c-6.1,0-12.8-2.5-19.9-7.6c-4.8-3.4-8.1-6.8-8.5-7.2c-0.1-0.1-0.5-0.2-0.9-0.2
	l-0.1,0L47.7,32.5c0.6,1.3,3.1,7.6,3.1,14.1c0,19.6-15.4,35.7-34.8,36.7c-0.3,1.5-1.8,10.2-1.8,16.7c0,6.5,1.5,15.2,1.8,16.7
	c19.4,1,34.8,17.1,34.8,36.7c0,6.6-2.6,12.9-3.1,14.2L70,180.1c0.3,0,0.6-0.1,0.8-0.2c0.4-0.4,3.7-4,8.5-7.5
	c7.1-5.2,13.9-7.9,20.2-7.9c6.3,0,13.1,2.7,20.3,8C124.6,176.2,128,179.7,128.4,180.2L128.4,180.2z"/>
</svg>
